<svg width="758" height="1024" viewBox="0 0 758 1024" fill="none" xmlns="http://www.w3.org/2000/svg">
<path d="M658.184 238.422C706.703 274.529 706.51 347.259 657.8 383.108L65.8204 818.786C6.30236 862.589 -77.7221 819.961 -77.526 746.062L-75.2055 -128.429C-75.0094 -202.328 9.24019 -244.51 68.525 -200.391L658.184 238.422Z" fill="url(#paint0_linear_232_2)"/>
<path d="M653.806 674.425C702.325 710.532 702.132 783.262 653.422 819.111L61.4431 1254.79C1.92499 1298.59 -82.0994 1255.96 -81.9033 1182.06L-79.5828 307.574C-79.3868 233.675 4.86282 191.493 64.1476 235.612L653.806 674.425Z" fill="url(#paint1_linear_232_2)"/>
<path d="M657.806 455.425C706.325 491.532 706.132 564.262 657.422 600.111L65.4431 1035.79C5.92499 1079.59 -78.0994 1036.96 -77.9033 963.065L-75.5828 88.5745C-75.3868 14.6752 8.86282 -27.5066 68.1476 16.6121L657.806 455.425Z" fill="url(#paint2_linear_232_2)"/>
<defs>
<linearGradient id="paint0_linear_232_2" x1="789.497" y1="-376.345" x2="-592.787" y2="696.133" gradientUnits="userSpaceOnUse">
<stop stop-color="#002F49"/>
<stop offset="1" stop-color="#360940"/>
</linearGradient>
<linearGradient id="paint1_linear_232_2" x1="753.253" y1="35.9441" x2="-629.03" y2="1108.42" gradientUnits="userSpaceOnUse">
<stop stop-color="#002F49"/>
<stop offset="1" stop-color="#360940"/>
</linearGradient>
<linearGradient id="paint2_linear_232_2" x1="757.253" y1="-183.056" x2="-625.03" y2="889.421" gradientUnits="userSpaceOnUse">
<stop stop-color="#F05F57"/>
<stop offset="1" stop-color="#360940"/>
</linearGradient>
</defs>
</svg>
